# xmcd
#
# Track frame offsets:
#	150
#	20860
#	73875
#	105370
#	139660
#	178970
#	202755
#
# Disc length: 3111 seconds
#
# Revision: 0
# Processed by: cddbd v1.5.2PL0 Copyright (c) Steve Scherf et al.
# Submitted via: EasyCDDAExtractor 10.0.2.1
#
DISCID=620c2507
DTITLE=Ozzy Osbourne - Tommy Hillfiger At Jones Beach Wantagh NY 15-06-96 Disc
DTITLE=2
DYEAR=1996
DGENRE=Hard Rock
TTITLE0=Sabbath Bloody Sabbath
TTITLE1=Iron Man - Sweet Leaf - Children Of The Grave
TTITLE2=Mr Crowley
TTITLE3=War Pigs
TTITLE4=Crazy Train
TTITLE5=Mama I'm Coming Home
TTITLE6=Bark At The Moon
EXTD=
EXTT0=
EXTT1=
EXTT2=
EXTT3=
EXTT4=
EXTT5=
EXTT6=
PLAYORDER=
